<svg xmlns="http://www.w3.org/2000/svg" viewBox="0 0 512 512"><rect width="512" height="512" rx="112" fill="#111827"/><path d="M120 146c0-24 20-44 44-44h184c24 0 44 20 44 44v220c0 24-20 44-44 44H164c-24 0-44-20-44-44V146Z" fill="#ffffff"/><path d="M157 180h198v38H157v-38Zm0 68h198v38H157v-38Zm0 68h130v38H157v-38Z" fill="#0ea5e9"/><circle cx="342" cy="335" r="41" fill="#fbbf24"/><path d="m325 336 13 13 27-33" stroke="#111827" stroke-width="14" fill="none" stroke-linecap="round" stroke-linejoin="round"/></svg>
